<mxfile host="65bd71144e">
    <diagram id="mx-KaKrPz3ayDPgR4vtR" name="Page-1">
        <mxGraphModel dx="957" dy="677" grid="1" gridSize="10" guides="1" tooltips="1" connect="1" arrows="1" fold="1" page="1" pageScale="1" pageWidth="827" pageHeight="1169" math="0" shadow="0">
            <root>
                <mxCell id="0"/>
                <mxCell id="1" parent="0"/>
                <mxCell id="2" style="edgeStyle=none;html=1;exitX=0.5;exitY=1;exitDx=0;exitDy=0;fontSize=27;fillColor=#1ba1e2;strokeColor=#006EAF;strokeWidth=5;" edge="1" parent="1" source="3">
                    <mxGeometry relative="1" as="geometry">
                        <mxPoint x="409" y="160" as="targetPoint"/>
                    </mxGeometry>
                </mxCell>
                <mxCell id="3" value="&lt;font style=&quot;font-size: 27px&quot;&gt;Start&lt;/font&gt;" style="rounded=1;whiteSpace=wrap;html=1;fillColor=#008a00;fontColor=#ffffff;strokeColor=#005700;" vertex="1" parent="1">
                    <mxGeometry x="349" y="40" width="120" height="60" as="geometry"/>
                </mxCell>
                <mxCell id="7" value="" style="edgeStyle=none;html=1;strokeWidth=5;fillColor=#1ba1e2;strokeColor=#006EAF;" edge="1" parent="1" source="4" target="6">
                    <mxGeometry relative="1" as="geometry"/>
                </mxCell>
                <mxCell id="4" value="&lt;font color=&quot;#000000&quot;&gt;a, b&lt;br&gt;Xmax=0;&amp;nbsp;&lt;/font&gt;" style="shape=parallelogram;perimeter=parallelogramPerimeter;whiteSpace=wrap;html=1;fixedSize=1;fontSize=27;fillColor=#fad7ac;strokeColor=#b46504;" vertex="1" parent="1">
                    <mxGeometry x="330" y="160" width="160" height="70" as="geometry"/>
                </mxCell>
                <mxCell id="9" value="&lt;font style=&quot;font-size: 20px&quot; color=&quot;#00ff00&quot;&gt;ДА&lt;/font&gt;" style="edgeStyle=none;html=1;fontColor=#000000;strokeWidth=5;fillColor=#1ba1e2;strokeColor=#006EAF;" edge="1" parent="1" source="6" target="8">
                    <mxGeometry x="-0.5929" y="-19" relative="1" as="geometry">
                        <mxPoint as="offset"/>
                    </mxGeometry>
                </mxCell>
                <mxCell id="11" value="&lt;font style=&quot;font-size: 20px&quot; color=&quot;#ff0000&quot;&gt;Нет&lt;/font&gt;" style="edgeStyle=none;html=1;fontColor=#000000;strokeWidth=5;fillColor=#1ba1e2;strokeColor=#006EAF;" edge="1" parent="1" source="6" target="10">
                    <mxGeometry x="-0.4286" y="25" relative="1" as="geometry">
                        <Array as="points">
                            <mxPoint x="490" y="325"/>
                        </Array>
                        <mxPoint as="offset"/>
                    </mxGeometry>
                </mxCell>
                <mxCell id="6" value="&lt;font color=&quot;#000000&quot;&gt;a&amp;gt;b?&lt;/font&gt;" style="rhombus;whiteSpace=wrap;html=1;fontSize=27;fillColor=#fad7ac;strokeColor=#b46504;" vertex="1" parent="1">
                    <mxGeometry x="354" y="270" width="110" height="110" as="geometry"/>
                </mxCell>
                <mxCell id="14" value="" style="edgeStyle=none;html=1;fontColor=#000000;strokeWidth=5;fillColor=#1ba1e2;strokeColor=#006EAF;entryX=-0.01;entryY=0.313;entryDx=0;entryDy=0;entryPerimeter=0;" edge="1" parent="1" source="8" target="13">
                    <mxGeometry relative="1" as="geometry"/>
                </mxCell>
                <mxCell id="8" value="&lt;font color=&quot;#000000&quot;&gt;Xmax=a;&lt;/font&gt;" style="whiteSpace=wrap;html=1;fontSize=27;fillColor=#fad7ac;strokeColor=#b46504;" vertex="1" parent="1">
                    <mxGeometry x="350" y="430" width="120" height="60" as="geometry"/>
                </mxCell>
                <mxCell id="15" style="edgeStyle=none;html=1;entryX=0.5;entryY=0;entryDx=0;entryDy=0;fontColor=#000000;strokeWidth=5;fillColor=#1ba1e2;strokeColor=#006EAF;" edge="1" parent="1" target="13">
                    <mxGeometry relative="1" as="geometry">
                        <mxPoint x="620" y="360" as="sourcePoint"/>
                    </mxGeometry>
                </mxCell>
                <mxCell id="10" value="&lt;font color=&quot;#000000&quot;&gt;Xmax=b;&lt;/font&gt;" style="whiteSpace=wrap;html=1;fontSize=27;fillColor=#fad7ac;strokeColor=#b46504;" vertex="1" parent="1">
                    <mxGeometry x="520" y="295" width="120" height="60" as="geometry"/>
                </mxCell>
                <mxCell id="13" value="&lt;font color=&quot;#000000&quot;&gt;Максимальное число: Xmax&lt;/font&gt;" style="shape=document;whiteSpace=wrap;html=1;boundedLbl=1;fontSize=27;fillColor=#fad7ac;strokeColor=#b46504;" vertex="1" parent="1">
                    <mxGeometry x="520" y="430" width="200" height="100" as="geometry"/>
                </mxCell>
            </root>
        </mxGraphModel>
    </diagram>
</mxfile>